# Blender v2.80 (sub 60) OBJ File: 'bombPowUp.blend1'
# www.blender.org
mtllib bombPowUp.mtl
o Cube_Cube.007
v -0.192859 0.775474 0.031724
v -0.212260 0.825794 0.008490
v -0.100758 0.775474 -0.045182
v -0.120160 0.825794 -0.068416
v -0.169547 0.795482 0.059641
v -0.188949 0.845801 0.036407
v -0.077447 0.795482 -0.017265
v -0.096848 0.845801 -0.040500
v -0.220667 0.836372 -0.001578
v -0.128567 0.836372 -0.078485
v -0.196362 0.857951 0.027529
v -0.104261 0.857951 -0.049377
v -0.228838 0.845125 -0.011363
v -0.136738 0.845125 -0.088270
v -0.203738 0.867943 0.018695
v -0.111638 0.867943 -0.058211
v -0.241977 0.853481 -0.027098
v -0.149876 0.853481 -0.104004
v -0.211403 0.876446 0.009516
v -0.119303 0.876446 -0.067390
v -0.253802 0.859306 -0.041260
v -0.161702 0.859306 -0.118166
v -0.225164 0.887700 -0.006963
v -0.133063 0.887700 -0.083869
v -0.263901 0.858445 -0.053353
v -0.171800 0.858445 -0.130259
v -0.240700 0.896320 -0.025569
v -0.148600 0.896320 -0.102475
v -0.279365 0.860868 -0.071872
v -0.187265 0.860868 -0.148779
v -0.256164 0.898744 -0.044088
v -0.164064 0.898744 -0.120995
v -0.295958 0.858635 -0.091744
v -0.203858 0.858635 -0.168650
v -0.272757 0.896511 -0.063960
v -0.180657 0.896511 -0.140866
v -0.313075 0.856618 -0.112243
v -0.220975 0.856618 -0.189149
v -0.293307 0.896750 -0.088569
v -0.201207 0.896750 -0.165476
v -0.331099 0.851425 -0.133828
v -0.238999 0.851425 -0.210734
v -0.312756 0.892593 -0.111860
v -0.220655 0.892593 -0.188766
v -0.353632 0.846807 -0.160812
v -0.261532 0.846807 -0.237718
v -0.332242 0.888426 -0.135197
v -0.240142 0.888426 -0.212103
v -0.376332 0.849821 -0.187996
v -0.284231 0.849821 -0.264903
v -0.347121 0.889051 -0.153015
v -0.255021 0.889051 -0.229921
v -0.387318 0.857773 -0.201153
v -0.295218 0.857773 -0.278060
v -0.362096 0.892827 -0.170948
v -0.269995 0.892827 -0.247854
v -0.399201 0.869155 -0.215384
v -0.307101 0.869155 -0.292291
v -0.374340 0.899013 -0.185611
v -0.282240 0.899013 -0.262518
v -0.411983 0.882267 -0.230691
v -0.319883 0.882267 -0.307597
v -0.385699 0.909057 -0.199215
v -0.293599 0.909057 -0.276121
v -0.422382 0.899533 -0.243144
v -0.330281 0.899533 -0.320050
v -0.394916 0.923365 -0.210252
v -0.302816 0.923365 -0.287159
v -0.435708 0.920978 -0.259104
v -0.343608 0.920978 -0.336010
v -0.405821 0.936796 -0.223311
v -0.313720 0.936796 -0.300218
v -0.444856 0.937466 -0.270058
v -0.352755 0.937466 -0.346965
v -0.414968 0.953284 -0.234266
v -0.322868 0.953284 -0.311172
v -0.453894 0.955770 -0.280883
v -0.361794 0.955770 -0.357789
v -0.426326 0.979322 -0.247868
v -0.334226 0.979322 -0.324774
v -0.452514 0.968365 -0.279230
v -0.360414 0.968365 -0.356136
v -0.433977 0.983880 -0.257031
v -0.341877 0.983880 -0.333937
v -0.448465 0.976812 -0.274381
v -0.356365 0.976812 -0.351287
v -0.440699 0.982743 -0.265080
v -0.348599 0.982743 -0.341987
v -0.447568 0.983015 -0.273306
v -0.355468 0.983015 -0.350213
v -0.444578 0.984695 -0.269726
v -0.352478 0.984695 -0.346632
v -0.044476 -0.076478 0.210618
v 0.046321 -0.076478 0.134801
v -0.102141 -0.067616 0.141560
v -0.011345 -0.067616 0.065742
v -0.157591 -0.041374 0.075155
v -0.066795 -0.041374 -0.000662
v -0.208694 0.001243 0.013956
v -0.117898 0.001243 -0.061861
v -0.253486 0.058594 -0.039685
v -0.162689 0.058594 -0.115502
v -0.290245 0.128478 -0.083707
v -0.199449 0.128478 -0.159524
v -0.317560 0.208207 -0.116418
v -0.226764 0.208207 -0.192236
v -0.334381 0.294719 -0.136562
v -0.243585 0.294719 -0.212379
v -0.340060 0.384688 -0.143363
v -0.249264 0.384688 -0.219181
v -0.334381 0.474656 -0.136562
v -0.243585 0.474656 -0.212379
v -0.317560 0.561168 -0.116418
v -0.226764 0.561168 -0.192236
v -0.290245 0.640897 -0.083707
v -0.199449 0.640897 -0.159524
v -0.253486 0.710781 -0.039685
v -0.162689 0.710781 -0.115502
v -0.208694 0.768133 0.013957
v -0.117897 0.768133 -0.061861
v -0.157591 0.810749 0.075155
v -0.066795 0.810749 -0.000662
v -0.102141 0.836992 0.141560
v -0.011345 0.836992 0.065743
v -0.044475 0.845853 0.210618
v 0.046321 0.845853 0.134801
v 0.013190 0.836992 0.279677
v 0.103987 0.836992 0.203859
v 0.068640 0.810749 0.346081
v 0.159436 0.810749 0.270264
v 0.119743 0.768132 0.407280
v 0.210539 0.768132 0.331463
v 0.164535 0.710781 0.460921
v 0.255331 0.710781 0.385104
v 0.201294 0.640897 0.504943
v 0.292091 0.640897 0.429126
v 0.228609 0.561168 0.537655
v 0.319406 0.561168 0.461837
v 0.245430 0.474656 0.557798
v 0.336226 0.474656 0.481981
v 0.251109 0.384687 0.564600
v 0.341906 0.384687 0.488783
v 0.245430 0.294718 0.557798
v 0.336226 0.294718 0.481981
v 0.228609 0.208207 0.537655
v 0.319405 0.208207 0.461837
v 0.201294 0.128477 0.504943
v 0.292090 0.128477 0.429126
v 0.164534 0.058594 0.460921
v 0.255330 0.058594 0.385103
v 0.119742 0.001242 0.407279
v 0.210538 0.001242 0.331462
v 0.068639 -0.041374 0.346081
v 0.159436 -0.041374 0.270263
v 0.013190 -0.067617 0.279676
v 0.103986 -0.067617 0.203859
v -0.693702 0.329770 -0.616780
v -0.693702 0.649758 -0.616780
v -0.651099 0.329770 -0.652354
v -0.651099 0.649758 -0.652355
v -0.488605 0.329770 -0.371163
v -0.488605 0.649758 -0.371163
v -0.446002 0.329770 -0.406738
v -0.446002 0.649758 -0.406738
v 0.024922 -0.479098 0.243818
v -0.180175 -0.479098 -0.001798
v 0.067525 -0.479098 0.208243
v -0.137572 -0.479098 -0.037373
v 0.024922 -0.159110 0.243818
v -0.180175 -0.159110 -0.001798
v 0.067525 -0.159110 0.208243
v -0.137572 -0.159110 -0.037373
v 0.024922 1.146313 0.243818
v -0.180175 1.146313 -0.001798
v 0.067525 1.146313 0.208243
v -0.137572 1.146313 -0.037373
v 0.024922 1.466301 0.243818
v -0.180175 1.466301 -0.001798
v 0.067525 1.466301 0.208243
v -0.137572 1.466301 -0.037373
v 0.338310 0.329770 0.619120
v 0.338310 0.649758 0.619120
v 0.380913 0.329770 0.583545
v 0.380913 0.649758 0.583545
v 0.543407 0.329770 0.864737
v 0.543407 0.649758 0.864737
v 0.586010 0.329770 0.829162
v 0.586010 0.649758 0.829162
v -0.498641 -0.259432 -0.494196
v -0.498641 1.238961 -0.494196
v -0.565272 -0.259432 -0.438557
v -0.565272 1.238961 -0.438557
v 0.461757 -0.259432 0.655942
v 0.461757 1.238961 0.655942
v 0.395126 -0.259432 0.711581
v 0.395126 1.238961 0.711581
v -0.636967 -0.510236 -0.705435
v -0.636967 1.489764 -0.705435
v -0.748452 -0.510236 -0.612342
v -0.748452 1.489764 -0.612342
v 0.644937 -0.510236 0.829727
v 0.644937 1.489764 0.829727
v 0.533452 -0.510236 0.922820
v 0.533452 1.489764 0.922820
v 0.438861 1.489764 0.809542
v 0.438861 -0.510236 0.809542
v 0.550346 1.489764 0.716448
v 0.550346 -0.510236 0.716448
v -0.664255 -0.510236 -0.511511
v -0.552770 1.489764 -0.604604
v -0.664255 1.489764 -0.511511
v -0.552770 -0.510236 -0.604604
v -0.636967 1.353904 -0.705435
v -0.748452 1.353904 -0.612342
v 0.533452 1.353904 0.922820
v 0.644937 1.353904 0.829727
v 0.550346 1.353904 0.716448
v 0.438861 1.353904 0.809542
v -0.664255 1.353904 -0.511511
v -0.552770 1.353904 -0.604604
v -0.748452 -0.381827 -0.612342
v 0.533452 -0.381827 0.922820
v 0.644937 -0.381827 0.829727
v 0.550346 -0.381827 0.716448
v 0.438861 -0.381827 0.809542
v -0.664255 -0.381827 -0.511511
v -0.552770 -0.381827 -0.604604
v -0.636967 -0.381827 -0.705435
vn -0.5492 -0.5155 -0.6577
vn 0.7676 -0.0000 -0.6410
vn 0.5492 0.5155 0.6577
vn -0.7676 -0.0000 0.6410
vn 0.3089 -0.8762 0.3700
vn 0.4642 0.6895 0.5560
vn -0.4024 -0.7784 -0.4819
vn 0.3714 0.8150 0.4448
vn 0.4202 0.7551 0.5032
vn -0.3628 -0.8244 -0.4345
vn -0.2420 -0.9260 -0.2898
vn 0.2148 0.9422 0.2572
vn 0.2976 0.8857 0.3564
vn -0.1929 -0.9536 -0.2311
vn 0.0641 0.9950 0.0767
vn 0.0350 -0.9985 0.0419
vn -0.0641 -0.9950 -0.0767
vn 0.0048 1.0000 0.0057
vn -0.0551 0.9963 -0.0660
vn 0.0551 -0.9963 0.0660
vn 0.1164 -0.9834 0.1394
vn 0.0483 -0.9972 0.0578
vn -0.0870 0.9907 -0.1042
vn 0.0173 0.9996 0.0207
vn 0.0835 -0.9915 0.1000
vn -0.0544 -0.9964 -0.0651
vn 0.1023 0.9872 0.1225
vn -0.2697 -0.9072 -0.3230
vn 0.3160 0.8700 0.3784
vn 0.1975 0.9514 0.2365
vn -0.3353 -0.8522 -0.4016
vn -0.3521 -0.8356 -0.4217
vn -0.7676 0.0000 0.6409
vn 0.3972 0.7849 0.4756
vn 0.4521 0.7089 0.5414
vn -0.4671 -0.6848 -0.5594
vn 0.4846 0.6545 0.5804
vn -0.4602 -0.6961 -0.5511
vn -0.4846 -0.6545 -0.5804
vn 0.2286 0.9342 0.2738
vn 0.5299 0.5626 0.6346
vn -0.5077 -0.6103 -0.6080
vn -0.5133 0.5989 -0.6147
vn -0.6318 0.1685 -0.7566
vn -0.0691 0.9942 -0.0828
vn -0.2172 0.9408 -0.2601
vn 0.1968 0.9517 0.2357
vn -0.6252 0.2202 -0.7487
vn 0.0628 0.9952 0.0752
vn 0.1861 0.9569 0.2228
vn 0.3021 0.8819 0.3618
vn 0.4066 0.7730 0.4869
vn 0.4955 0.6344 0.5933
vn 0.5653 0.4714 0.6769
vn 0.6134 0.2903 0.7345
vn 0.6379 0.0980 0.7639
vn 0.6379 -0.0980 0.7639
vn 0.6134 -0.2903 0.7345
vn 0.5653 -0.4714 0.6769
vn 0.4955 -0.6344 0.5933
vn 0.4066 -0.7730 0.4869
vn 0.3021 -0.8819 0.3618
vn 0.1861 -0.9569 0.2228
vn 0.0628 -0.9952 0.0752
vn -0.0628 -0.9952 -0.0752
vn -0.1861 -0.9569 -0.2228
vn -0.3021 -0.8819 -0.3618
vn -0.4066 -0.7730 -0.4869
vn -0.4955 -0.6344 -0.5933
vn -0.5653 -0.4714 -0.6769
vn -0.6134 -0.2903 -0.7345
vn -0.6379 -0.0980 -0.7639
vn -0.6379 0.0980 -0.7639
vn -0.6134 0.2903 -0.7345
vn -0.5653 0.4714 -0.6769
vn -0.4955 0.6344 -0.5933
vn -0.4066 0.7730 -0.4869
vn -0.3021 0.8819 -0.3618
vn -0.1861 0.9569 -0.2228
vn -0.0628 0.9952 -0.0752
vn -0.6410 -0.0000 -0.7676
vn 0.6410 -0.0000 0.7676
vn 0.0000 -1.0000 0.0000
vn 0.0000 1.0000 0.0000
usemtl string
s off
f 2//1 4//1 3//1 1//1
f 4//2 8//2 7//2 3//2
f 8//3 6//3 5//3 7//3
f 6//4 2//4 1//4 5//4
f 1//5 3//5 7//5 5//5
f 6//6 8//6 12//6 11//6
f 12//2 10//2 14//2 16//2
f 4//7 2//7 9//7 10//7
f 2//4 6//4 11//4 9//4
f 8//2 4//2 10//2 12//2
f 15//8 16//8 20//8 19//8
f 11//9 12//9 16//9 15//9
f 10//10 9//10 13//10 14//10
f 9//4 11//4 15//4 13//4
f 17//4 19//4 23//4 21//4
f 14//11 13//11 17//11 18//11
f 13//4 15//4 19//4 17//4
f 16//2 14//2 18//2 20//2
f 23//12 24//12 28//12 27//12
f 20//2 18//2 22//2 24//2
f 19//13 20//13 24//13 23//13
f 18//14 17//14 21//14 22//14
f 27//15 28//15 32//15 31//15
f 22//16 21//16 25//16 26//16
f 21//4 23//4 27//4 25//4
f 24//2 22//2 26//2 28//2
f 29//4 31//4 35//4 33//4
f 26//17 25//17 29//17 30//17
f 25//4 27//4 31//4 29//4
f 28//2 26//2 30//2 32//2
f 35//18 36//18 40//18 39//18
f 32//2 30//2 34//2 36//2
f 31//19 32//19 36//19 35//19
f 30//20 29//20 33//20 34//20
f 38//21 37//21 41//21 42//21
f 34//22 33//22 37//22 38//22
f 33//4 35//4 39//4 37//4
f 36//2 34//2 38//2 40//2
f 41//4 43//4 47//4 45//4
f 37//4 39//4 43//4 41//4
f 40//2 38//2 42//2 44//2
f 39//23 40//23 44//23 43//23
f 47//24 48//24 52//24 51//24
f 44//2 42//2 46//2 48//2
f 43//23 44//23 48//23 47//23
f 42//25 41//25 45//25 46//25
f 49//4 51//4 55//4 53//4
f 46//26 45//26 49//26 50//26
f 45//4 47//4 51//4 49//4
f 48//2 46//2 50//2 52//2
f 56//2 54//2 58//2 60//2
f 52//2 50//2 54//2 56//2
f 51//27 52//27 56//27 55//27
f 50//28 49//28 53//28 54//28
f 59//29 60//29 64//29 63//29
f 55//30 56//30 60//30 59//30
f 54//31 53//31 57//31 58//31
f 53//4 55//4 59//4 57//4
f 61//4 63//4 67//4 65//4
f 58//32 57//32 61//32 62//32
f 57//33 59//33 63//33 61//33
f 60//2 58//2 62//2 64//2
f 67//34 68//34 72//34 71//34
f 64//2 62//2 66//2 68//2
f 63//35 64//35 68//35 67//35
f 62//36 61//36 65//36 66//36
f 71//37 72//37 76//37 75//37
f 66//38 65//38 69//38 70//38
f 65//4 67//4 71//4 69//4
f 68//2 66//2 70//2 72//2
f 73//4 75//4 79//4 77//4
f 70//39 69//39 73//39 74//39
f 69//4 71//4 75//4 73//4
f 72//2 70//2 74//2 76//2
f 79//40 80//40 84//40 83//40
f 76//2 74//2 78//2 80//2
f 75//41 76//41 80//41 79//41
f 74//42 73//42 77//42 78//42
f 82//43 81//43 85//43 86//43
f 78//44 77//44 81//44 82//44
f 77//33 79//33 83//33 81//33
f 80//2 78//2 82//2 84//2
f 85//4 87//4 91//4 89//4
f 81//4 83//4 87//4 85//4
f 84//2 82//2 86//2 88//2
f 83//45 84//45 88//45 87//45
f 91//46 92//46 90//46 89//46
f 88//2 86//2 90//2 92//2
f 87//47 88//47 92//47 91//47
f 86//48 85//48 89//48 90//48
usemtl blacky
f 93//49 94//49 96//49 95//49
f 95//50 96//50 98//50 97//50
f 97//51 98//51 100//51 99//51
f 99//52 100//52 102//52 101//52
f 101//53 102//53 104//53 103//53
f 103//54 104//54 106//54 105//54
f 105//55 106//55 108//55 107//55
f 107//56 108//56 110//56 109//56
f 109//57 110//57 112//57 111//57
f 111//58 112//58 114//58 113//58
f 113//59 114//59 116//59 115//59
f 115//60 116//60 118//60 117//60
f 117//61 118//61 120//61 119//61
f 119//62 120//62 122//62 121//62
f 121//63 122//63 124//63 123//63
f 123//64 124//64 126//64 125//64
f 125//65 126//65 128//65 127//65
f 127//66 128//66 130//66 129//66
f 129//67 130//67 132//67 131//67
f 131//68 132//68 134//68 133//68
f 133//69 134//69 136//69 135//69
f 135//70 136//70 138//70 137//70
f 137//71 138//71 140//71 139//71
f 139//72 140//72 142//72 141//72
f 141//73 142//73 144//73 143//73
f 143//74 144//74 146//74 145//74
f 145//75 146//75 148//75 147//75
f 147//76 148//76 150//76 149//76
f 149//77 150//77 152//77 151//77
f 151//78 152//78 154//78 153//78
f 96//4 94//4 156//4 154//4 152//4 150//4 148//4 146//4 144//4 142//4 140//4 138//4 136//4 134//4 132//4 130//4 128//4 126//4 124//4 122//4 120//4 118//4 116//4 114//4 112//4 110//4 108//4 106//4 104//4 102//4 100//4 98//4
f 153//79 154//79 156//79 155//79
f 155//80 156//80 94//80 93//80
f 93//2 95//2 97//2 99//2 101//2 103//2 105//2 107//2 109//2 111//2 113//2 115//2 117//2 119//2 121//2 123//2 125//2 127//2 129//2 131//2 133//2 135//2 137//2 139//2 141//2 143//2 145//2 147//2 149//2 151//2 153//2 155//2
usemtl gray
f 158//81 160//81 159//81 157//81
f 160//2 164//2 163//2 159//2
f 164//82 162//82 161//82 163//82
f 162//4 158//4 157//4 161//4
f 157//83 159//83 163//83 161//83
f 162//84 164//84 160//84 158//84
f 166//83 168//83 167//83 165//83
f 168//2 172//2 171//2 167//2
f 172//84 170//84 169//84 171//84
f 170//4 166//4 165//4 169//4
f 165//82 167//82 171//82 169//82
f 170//81 172//81 168//81 166//81
f 174//83 176//83 175//83 173//83
f 176//2 180//2 179//2 175//2
f 180//84 178//84 177//84 179//84
f 178//4 174//4 173//4 177//4
f 173//82 175//82 179//82 177//82
f 178//81 180//81 176//81 174//81
f 182//81 184//81 183//81 181//81
f 184//2 188//2 187//2 183//2
f 188//82 186//82 185//82 187//82
f 186//4 182//4 181//4 185//4
f 181//83 183//83 187//83 185//83
f 186//84 188//84 184//84 182//84
usemtl Back
f 190//82 192//82 191//82 189//82
f 192//2 196//2 195//2 191//2
f 196//81 194//81 193//81 195//81
f 194//4 190//4 189//4 193//4
f 189//84 191//84 195//84 193//84
f 194//83 196//83 192//83 190//83
usemtl red
f 228//82 221//82 199//82 197//82
f 225//2 222//2 203//2 206//2
f 222//81 223//81 201//81 203//81
f 227//4 228//4 197//4 212//4
f 208//84 206//84 203//84 201//84
f 210//83 211//83 200//83 198//83
f 202//83 204//83 205//83 207//83
f 212//84 209//84 206//84 208//84
f 223//4 224//4 208//4 201//4
f 226//2 225//2 206//2 209//2
f 221//2 226//2 209//2 199//2
f 197//84 199//84 209//84 212//84
f 207//83 205//83 211//83 210//83
f 224//4 227//4 212//4 208//4
f 207//4 210//4 220//4 217//4
f 200//2 211//2 219//2 214//2
f 211//2 205//2 218//2 219//2
f 202//4 207//4 217//4 216//4
f 210//4 198//4 213//4 220//4
f 204//81 202//81 216//81 215//81
f 205//2 204//2 215//2 218//2
f 198//82 200//82 214//82 213//82
f 220//84 219//84 218//84 217//84
f 214//2 219//2 226//2 221//2
f 226//81 219//81 220//81 227//81
f 216//4 217//4 224//4 223//4
f 220//4 213//4 228//4 227//4
f 215//81 216//81 223//81 222//81
f 218//2 215//2 222//2 225//2
f 213//82 214//82 221//82 228//82
f 227//83 224//83 225//83 226//83
f 224//82 217//82 218//82 225//82
