# Blender v2.80 (sub 60) OBJ File: 'rangePowUp.blend1'
# www.blender.org
mtllib rangePowUp.mtl
o Cylinder.002_Cylinder.003
v 0.203051 -0.143045 -0.063550
v 0.201826 -0.143045 0.066999
v 0.199873 -0.169059 -0.063580
v 0.198648 -0.169059 0.066970
v 0.190461 -0.194073 -0.063669
v 0.189236 -0.194073 0.066881
v 0.175177 -0.217126 -0.063812
v 0.173952 -0.217126 0.066738
v 0.154608 -0.237332 -0.064005
v 0.153382 -0.237332 0.066545
v 0.129544 -0.253915 -0.064240
v 0.128319 -0.253915 0.066310
v 0.100949 -0.266237 -0.064509
v 0.099724 -0.266237 0.066041
v 0.069922 -0.273825 -0.064800
v 0.068696 -0.273825 0.065750
v 0.037654 -0.276387 -0.065103
v 0.036429 -0.276387 0.065447
v 0.005387 -0.273825 -0.065406
v 0.004161 -0.273825 0.065144
v -0.025641 -0.266237 -0.065697
v -0.026866 -0.266237 0.064853
v -0.054236 -0.253915 -0.065965
v -0.055461 -0.253915 0.064585
v -0.079299 -0.237332 -0.066200
v -0.080525 -0.237332 0.064349
v -0.099869 -0.217126 -0.066394
v -0.101094 -0.217126 0.064156
v -0.115153 -0.194073 -0.066537
v -0.116378 -0.194073 0.064013
v -0.124565 -0.169059 -0.066625
v -0.125790 -0.169059 0.063925
v -0.127743 -0.143045 -0.066655
v -0.128968 -0.143045 0.063895
vn 0.9926 -0.1213 0.0093
vn 0.9359 -0.3522 0.0088
vn 0.8334 -0.5526 0.0078
vn 0.7007 -0.7134 0.0066
vn 0.5517 -0.8340 0.0052
vn 0.3957 -0.9184 0.0037
vn 0.2375 -0.9714 0.0022
vn 0.0791 -0.9969 0.0007
vn -0.0791 -0.9969 -0.0007
vn -0.2375 -0.9714 -0.0022
vn -0.3957 -0.9184 -0.0037
vn -0.5517 -0.8340 -0.0052
vn -0.7007 -0.7134 -0.0066
vn -0.8334 -0.5526 -0.0078
vn -0.9359 -0.3522 -0.0088
vn -0.9926 -0.1213 -0.0093
vn -0.0000 1.0000 0.0000
vn -0.0094 0.0000 1.0000
vn 0.0094 -0.0000 -1.0000
usemtl reddy
s off
f 1//1 2//1 4//1 3//1
f 3//2 4//2 6//2 5//2
f 5//3 6//3 8//3 7//3
f 7//4 8//4 10//4 9//4
f 9//5 10//5 12//5 11//5
f 11//6 12//6 14//6 13//6
f 13//7 14//7 16//7 15//7
f 15//8 16//8 18//8 17//8
f 17//9 18//9 20//9 19//9
f 19//10 20//10 22//10 21//10
f 21//11 22//11 24//11 23//11
f 23//12 24//12 26//12 25//12
f 25//13 26//13 28//13 27//13
f 27//14 28//14 30//14 29//14
f 29//15 30//15 32//15 31//15
f 31//16 32//16 34//16 33//16
f 1//17 33//17 34//17 2//17
f 4//18 2//18 34//18 32//18 30//18 28//18 26//18 24//18 22//18 20//18 18//18 16//18 14//18 12//18 10//18 8//18 6//18
f 1//19 3//19 5//19 7//19 9//19 11//19 13//19 15//19 17//19 19//19 21//19 23//19 25//19 27//19 29//19 31//19 33//19
o Cylinder.001_Cylinder.002
v -0.086132 0.039150 -0.066647
v -0.088195 0.039150 0.063892
v -0.079542 0.038120 -0.066543
v -0.081605 0.038120 0.063996
v -0.073206 0.035068 -0.066443
v -0.075268 0.035068 0.064097
v -0.067366 0.030112 -0.066351
v -0.069428 0.030112 0.064189
v -0.062247 0.023442 -0.066270
v -0.064310 0.023442 0.064270
v -0.058046 0.015314 -0.066203
v -0.060109 0.015314 0.064336
v -0.054925 0.006042 -0.066154
v -0.056987 0.006042 0.064385
v -0.053002 -0.004019 -0.066124
v -0.055065 -0.004019 0.064416
v -0.052353 -0.014483 -0.066113
v -0.054416 -0.014483 0.064426
v -0.053002 -0.024946 -0.066124
v -0.055065 -0.024946 0.064416
v -0.054925 -0.035007 -0.066154
v -0.056987 -0.035007 0.064385
v -0.058046 -0.044279 -0.066203
v -0.060109 -0.044279 0.064336
v -0.062247 -0.052407 -0.066270
v -0.064310 -0.052407 0.064270
v -0.067366 -0.059077 -0.066351
v -0.069428 -0.059077 0.064189
v -0.073206 -0.064033 -0.066443
v -0.075268 -0.064033 0.064097
v -0.079542 -0.067085 -0.066543
v -0.081605 -0.067085 0.063996
v -0.086132 -0.068116 -0.066647
v -0.088195 -0.068116 0.063892
v -0.092722 -0.067085 -0.066751
v -0.094785 -0.067085 0.063788
v -0.099059 -0.064033 -0.066851
v -0.101122 -0.064033 0.063688
v -0.104899 -0.059077 -0.066944
v -0.106961 -0.059077 0.063596
v -0.110017 -0.052407 -0.067025
v -0.112080 -0.052407 0.063515
v -0.114218 -0.044279 -0.067091
v -0.116281 -0.044279 0.063449
v -0.117340 -0.035007 -0.067140
v -0.119403 -0.035007 0.063399
v -0.119262 -0.024946 -0.067171
v -0.121325 -0.024946 0.063369
v -0.119911 -0.014483 -0.067181
v -0.121974 -0.014483 0.063359
v -0.119262 -0.004019 -0.067171
v -0.121325 -0.004019 0.063369
v -0.117340 0.006042 -0.067140
v -0.119403 0.006042 0.063399
v -0.114218 0.015314 -0.067091
v -0.116281 0.015314 0.063449
v -0.110017 0.023442 -0.067025
v -0.112080 0.023442 0.063515
v -0.104899 0.030112 -0.066944
v -0.106961 0.030112 0.063596
v -0.099059 0.035068 -0.066851
v -0.101122 0.035068 0.063688
v -0.092722 0.038120 -0.066751
v -0.094785 0.038120 0.063788
vn 0.1545 0.9880 0.0024
vn 0.4338 0.9010 0.0069
vn 0.6469 0.7625 0.0102
vn 0.7932 0.6089 0.0125
vn 0.8882 0.4592 0.0140
vn 0.9476 0.3191 0.0150
vn 0.9821 0.1877 0.0155
vn 0.9980 0.0619 0.0158
vn 0.9980 -0.0619 0.0158
vn 0.9821 -0.1877 0.0155
vn 0.9476 -0.3191 0.0150
vn 0.8882 -0.4592 0.0140
vn 0.7932 -0.6089 0.0125
vn 0.6469 -0.7625 0.0102
vn 0.4338 -0.9010 0.0069
vn 0.1545 -0.9880 0.0024
vn -0.1545 -0.9880 -0.0024
vn -0.4338 -0.9010 -0.0069
vn -0.6469 -0.7625 -0.0102
vn -0.7932 -0.6089 -0.0125
vn -0.8882 -0.4592 -0.0140
vn -0.9476 -0.3191 -0.0150
vn -0.9821 -0.1877 -0.0155
vn -0.9980 -0.0619 -0.0158
vn -0.9980 0.0619 -0.0158
vn -0.9821 0.1877 -0.0155
vn -0.9476 0.3191 -0.0150
vn -0.8882 0.4592 -0.0140
vn -0.7932 0.6089 -0.0125
vn -0.6469 0.7625 -0.0102
vn -0.0158 -0.0000 0.9999
vn -0.4338 0.9010 -0.0069
vn -0.1545 0.9880 -0.0024
vn 0.0158 0.0000 -0.9999
usemtl blacky
s off
f 35//20 36//20 38//20 37//20
f 37//21 38//21 40//21 39//21
f 39//22 40//22 42//22 41//22
f 41//23 42//23 44//23 43//23
f 43//24 44//24 46//24 45//24
f 45//25 46//25 48//25 47//25
f 47//26 48//26 50//26 49//26
f 49//27 50//27 52//27 51//27
f 51//28 52//28 54//28 53//28
f 53//29 54//29 56//29 55//29
f 55//30 56//30 58//30 57//30
f 57//31 58//31 60//31 59//31
f 59//32 60//32 62//32 61//32
f 61//33 62//33 64//33 63//33
f 63//34 64//34 66//34 65//34
f 65//35 66//35 68//35 67//35
f 67//36 68//36 70//36 69//36
f 69//37 70//37 72//37 71//37
f 71//38 72//38 74//38 73//38
f 73//39 74//39 76//39 75//39
f 75//40 76//40 78//40 77//40
f 77//41 78//41 80//41 79//41
f 79//42 80//42 82//42 81//42
f 81//43 82//43 84//43 83//43
f 83//44 84//44 86//44 85//44
f 85//45 86//45 88//45 87//45
f 87//46 88//46 90//46 89//46
f 89//47 90//47 92//47 91//47
f 91//48 92//48 94//48 93//48
f 93//49 94//49 96//49 95//49
f 38//50 36//50 98//50 96//50 94//50 92//50 90//50 88//50 86//50 84//50 82//50 80//50 78//50 76//50 74//50 72//50 70//50 68//50 66//50 64//50 62//50 60//50 58//50 56//50 54//50 52//50 50//50 48//50 46//50 44//50 42//50 40//50
f 95//51 96//51 98//51 97//51
f 97//52 98//52 36//52 35//52
f 35//53 37//53 39//53 41//53 43//53 45//53 47//53 49//53 51//53 53//53 55//53 57//53 59//53 61//53 63//53 65//53 67//53 69//53 71//53 73//53 75//53 77//53 79//53 81//53 83//53 85//53 87//53 89//53 91//53 93//53 95//53 97//53
o Cylinder
v 0.149058 0.060711 -0.062960
v 0.146995 0.060711 0.067580
v 0.155648 0.059680 -0.062855
v 0.153585 0.059680 0.067684
v 0.161984 0.056628 -0.062755
v 0.159922 0.056628 0.067784
v 0.167824 0.051672 -0.062663
v 0.165762 0.051672 0.067876
v 0.172943 0.045002 -0.062582
v 0.170880 0.045002 0.067957
v 0.177144 0.036875 -0.062516
v 0.175081 0.036875 0.068024
v 0.180265 0.027602 -0.062466
v 0.178203 0.027602 0.068073
v 0.182188 0.017541 -0.062436
v 0.180125 0.017541 0.068103
v 0.182837 0.007078 -0.062426
v 0.180774 0.007078 0.068114
v 0.182188 -0.003386 -0.062436
v 0.180125 -0.003386 0.068103
v 0.180265 -0.013447 -0.062466
v 0.178203 -0.013447 0.068073
v 0.177144 -0.022719 -0.062516
v 0.175081 -0.022719 0.068024
v 0.172943 -0.030847 -0.062582
v 0.170880 -0.030847 0.067957
v 0.167824 -0.037517 -0.062663
v 0.165762 -0.037517 0.067876
v 0.161984 -0.042473 -0.062755
v 0.159922 -0.042473 0.067784
v 0.155648 -0.045525 -0.062855
v 0.153585 -0.045525 0.067684
v 0.149058 -0.046555 -0.062960
v 0.146995 -0.046555 0.067580
v 0.142468 -0.045525 -0.063064
v 0.140405 -0.045525 0.067476
v 0.136131 -0.042473 -0.063164
v 0.134068 -0.042473 0.067376
v 0.130291 -0.037516 -0.063256
v 0.128229 -0.037517 0.067283
v 0.125173 -0.030847 -0.063337
v 0.123110 -0.030847 0.067202
v 0.120972 -0.022719 -0.063403
v 0.118909 -0.022719 0.067136
v 0.117850 -0.013447 -0.063453
v 0.115787 -0.013447 0.067087
v 0.115928 -0.003386 -0.063483
v 0.113865 -0.003386 0.067056
v 0.115279 0.007078 -0.063493
v 0.113216 0.007078 0.067046
v 0.115928 0.017541 -0.063483
v 0.113865 0.017541 0.067056
v 0.117850 0.027602 -0.063453
v 0.115787 0.027602 0.067087
v 0.120972 0.036875 -0.063403
v 0.118909 0.036875 0.067136
v 0.125173 0.045002 -0.063337
v 0.123110 0.045002 0.067202
v 0.130291 0.051672 -0.063256
v 0.128229 0.051672 0.067283
v 0.136131 0.056628 -0.063164
v 0.134068 0.056628 0.067376
v 0.142468 0.059680 -0.063064
v 0.140405 0.059680 0.067476
vn 0.1545 0.9880 0.0024
vn 0.4338 0.9010 0.0069
vn 0.6469 0.7625 0.0102
vn 0.7932 0.6089 0.0125
vn 0.8882 0.4592 0.0140
vn 0.9476 0.3191 0.0150
vn 0.9821 0.1877 0.0155
vn 0.9980 0.0619 0.0158
vn 0.9980 -0.0619 0.0158
vn 0.9821 -0.1877 0.0155
vn 0.9476 -0.3191 0.0150
vn 0.8882 -0.4592 0.0140
vn 0.7932 -0.6089 0.0125
vn 0.6469 -0.7625 0.0102
vn 0.4338 -0.9010 0.0069
vn 0.1545 -0.9880 0.0024
vn -0.1545 -0.9880 -0.0024
vn -0.4338 -0.9010 -0.0069
vn -0.6469 -0.7625 -0.0102
vn -0.7932 -0.6089 -0.0125
vn -0.8882 -0.4592 -0.0140
vn -0.9476 -0.3191 -0.0150
vn -0.9821 -0.1877 -0.0155
vn -0.9980 -0.0619 -0.0158
vn -0.9980 0.0619 -0.0158
vn -0.9821 0.1877 -0.0155
vn -0.9476 0.3191 -0.0150
vn -0.8882 0.4592 -0.0140
vn -0.7932 0.6089 -0.0125
vn -0.6469 0.7625 -0.0102
vn -0.0158 -0.0000 0.9999
vn -0.4338 0.9010 -0.0069
vn -0.1545 0.9880 -0.0024
vn 0.0158 0.0000 -0.9999
usemtl blacky
s off
f 99//54 100//54 102//54 101//54
f 101//55 102//55 104//55 103//55
f 103//56 104//56 106//56 105//56
f 105//57 106//57 108//57 107//57
f 107//58 108//58 110//58 109//58
f 109//59 110//59 112//59 111//59
f 111//60 112//60 114//60 113//60
f 113//61 114//61 116//61 115//61
f 115//62 116//62 118//62 117//62
f 117//63 118//63 120//63 119//63
f 119//64 120//64 122//64 121//64
f 121//65 122//65 124//65 123//65
f 123//66 124//66 126//66 125//66
f 125//67 126//67 128//67 127//67
f 127//68 128//68 130//68 129//68
f 129//69 130//69 132//69 131//69
f 131//70 132//70 134//70 133//70
f 133//71 134//71 136//71 135//71
f 135//72 136//72 138//72 137//72
f 137//73 138//73 140//73 139//73
f 139//74 140//74 142//74 141//74
f 141//75 142//75 144//75 143//75
f 143//76 144//76 146//76 145//76
f 145//77 146//77 148//77 147//77
f 147//78 148//78 150//78 149//78
f 149//79 150//79 152//79 151//79
f 151//80 152//80 154//80 153//80
f 153//81 154//81 156//81 155//81
f 155//82 156//82 158//82 157//82
f 157//83 158//83 160//83 159//83
f 102//84 100//84 162//84 160//84 158//84 156//84 154//84 152//84 150//84 148//84 146//84 144//84 142//84 140//84 138//84 136//84 134//84 132//84 130//84 128//84 126//84 124//84 122//84 120//84 118//84 116//84 114//84 112//84 110//84 108//84 106//84 104//84
f 159//85 160//85 162//85 161//85
f 161//86 162//86 100//86 99//86
f 99//87 101//87 103//87 105//87 107//87 109//87 111//87 113//87 115//87 117//87 119//87 121//87 123//87 125//87 127//87 129//87 131//87 133//87 135//87 137//87 139//87 141//87 143//87 145//87 147//87 149//87 151//87 153//87 155//87 157//87 159//87 161//87
o Fire_Cylinder.001
v 0.131093 -0.459144 0.061033
v 0.132962 -0.459144 -0.057240
v 0.035427 -0.478400 0.059522
v 0.037296 -0.478400 -0.058752
v -0.054574 -0.471596 0.058099
v -0.052705 -0.471596 -0.060174
v -0.134125 -0.429223 0.056842
v -0.132256 -0.429223 -0.061431
v -0.202638 -0.363363 0.055760
v -0.200769 -0.363363 -0.062514
v -0.272067 -0.281793 0.054663
v -0.270198 -0.281793 -0.063611
v -0.311758 -0.197643 0.054035
v -0.309889 -0.197643 -0.064238
v -0.349473 -0.110928 0.053439
v -0.347604 -0.110928 -0.064834
v -0.363885 -0.014777 0.053212
v -0.362016 -0.014777 -0.065062
v -0.358060 0.076605 0.053304
v -0.356192 0.076605 -0.064970
v -0.337664 0.173417 0.053626
v -0.335795 0.173417 -0.064648
v -0.308222 0.257163 0.054091
v -0.306353 0.257163 -0.064183
v -0.272612 0.334471 0.054654
v -0.270743 0.334471 -0.063620
v -0.215448 0.434188 0.055557
v -0.213579 0.434188 -0.062717
v -0.153062 0.510021 0.056543
v -0.151193 0.510021 -0.061731
v -0.090899 0.308045 0.057526
v -0.089031 0.308045 -0.060748
v 0.021162 0.558507 0.059296
v 0.023031 0.558507 -0.058978
v 0.112059 0.328632 0.060733
v 0.113928 0.328632 -0.057541
v 0.198598 0.557661 0.062100
v 0.200466 0.557661 -0.056174
v 0.279223 0.454938 0.063374
v 0.281092 0.454938 -0.054900
v 0.335697 0.389655 0.064267
v 0.337566 0.389655 -0.054007
v 0.386036 0.313584 0.065062
v 0.387905 0.313584 -0.053212
v 0.433475 0.232495 0.065812
v 0.435344 0.232495 -0.052462
v 0.464988 0.143338 0.066310
v 0.466857 0.143338 -0.051964
v 0.490568 0.055706 0.066714
v 0.492437 0.055706 -0.051560
v 0.504060 -0.029881 0.066927
v 0.505929 -0.029881 -0.051347
v 0.491110 -0.096724 0.066722
v 0.492979 -0.096724 -0.051551
v 0.453474 -0.182803 0.066128
v 0.455343 -0.182803 -0.052146
v 0.400524 -0.259423 0.065291
v 0.402393 -0.259423 -0.052983
v 0.334295 -0.323638 0.064244
v 0.336164 -0.323638 -0.054030
v 0.262659 -0.382664 0.063112
v 0.264528 -0.382664 -0.055162
v 0.213419 -0.415780 0.062334
v 0.215288 -0.415780 -0.055940
vn 0.1973 -0.9803 0.0031
vn -0.0754 -0.9972 -0.0012
vn -0.4700 -0.8826 -0.0074
vn -0.6929 -0.7210 -0.0109
vn -0.7614 -0.6482 -0.0120
vn -0.9043 -0.4266 -0.0143
vn -0.9169 -0.3989 -0.0145
vn -0.9888 -0.1482 -0.0156
vn -0.9978 0.0636 -0.0158
vn -0.9784 0.2062 -0.0155
vn -0.9433 0.3317 -0.0149
vn -0.9081 0.4184 -0.0144
vn -0.8674 0.4974 -0.0137
vn -0.7721 0.6354 -0.0122
vn 0.9556 0.2942 0.0151
vn -0.9127 0.4084 -0.0144
vn 0.9298 0.3678 0.0147
vn -0.9353 0.3535 -0.0148
vn 0.7865 0.6175 0.0124
vn 0.7562 0.6543 0.0119
vn 0.8338 0.5519 0.0132
vn 0.8630 0.5050 0.0136
vn 0.9427 0.3333 0.0149
vn 0.9598 0.2802 0.0152
vn 0.9877 0.1557 0.0156
vn 0.9816 -0.1902 0.0155
vn 0.9161 -0.4007 0.0145
vn 0.8225 -0.5686 0.0130
vn 0.6960 -0.7180 0.0110
vn 0.6358 -0.7718 0.0100
vn 0.0158 0.0000 -0.9999
vn 0.5579 -0.8298 0.0088
vn 0.4659 -0.8848 0.0074
vn -0.0158 -0.0000 0.9999
usemtl yello
s off
f 163//88 165//88 166//88 164//88
f 165//89 167//89 168//89 166//89
f 167//90 169//90 170//90 168//90
f 169//91 171//91 172//91 170//91
f 171//92 173//92 174//92 172//92
f 173//93 175//93 176//93 174//93
f 175//94 177//94 178//94 176//94
f 177//95 179//95 180//95 178//95
f 179//96 181//96 182//96 180//96
f 181//97 183//97 184//97 182//97
f 183//98 185//98 186//98 184//98
f 185//99 187//99 188//99 186//99
f 187//100 189//100 190//100 188//100
f 189//101 191//101 192//101 190//101
f 191//102 193//102 194//102 192//102
f 193//103 195//103 196//103 194//103
f 195//104 197//104 198//104 196//104
f 197//105 199//105 200//105 198//105
f 199//106 201//106 202//106 200//106
f 201//107 203//107 204//107 202//107
f 203//108 205//108 206//108 204//108
f 205//109 207//109 208//109 206//109
f 207//110 209//110 210//110 208//110
f 209//111 211//111 212//111 210//111
f 211//112 213//112 214//112 212//112
f 213//113 215//113 216//113 214//113
f 215//114 217//114 218//114 216//114
f 217//115 219//115 220//115 218//115
f 219//116 221//116 222//116 220//116
f 221//117 223//117 224//117 222//117
f 166//118 168//118 170//118 172//118 174//118 176//118 178//118 180//118 182//118 184//118 186//118 188//118 190//118 192//118 194//118 196//118 198//118 200//118 202//118 204//118 206//118 208//118 210//118 212//118 214//118 216//118 218//118 220//118 222//118 224//118 226//118 164//118
f 223//119 225//119 226//119 224//119
f 225//120 163//120 164//120 226//120
f 163//121 225//121 223//121 221//121 219//121 217//121 215//121 213//121 211//121 209//121 207//121 205//121 203//121 201//121 199//121 197//121 195//121 193//121 191//121 189//121 187//121 185//121 183//121 181//121 179//121 177//121 175//121 173//121 171//121 169//121 167//121 165//121
o SideBars_Cube.006
v -0.968632 -0.153860 0.012534
v -0.968632 0.166128 0.012534
v -0.967755 -0.153860 -0.042963
v -0.967755 0.166128 -0.042963
v -0.648684 -0.153860 0.017589
v -0.648684 0.166128 0.017589
v -0.647807 -0.153860 -0.037907
v -0.647807 0.166128 -0.037907
v 0.152410 -0.962728 0.030248
v -0.167538 -0.962728 0.025192
v 0.153287 -0.962728 -0.025248
v -0.166661 -0.962728 -0.030304
v 0.152410 -0.642740 0.030248
v -0.167538 -0.642740 0.025192
v 0.153287 -0.642740 -0.025248
v -0.166661 -0.642740 -0.030304
v 0.152410 0.662683 0.030248
v -0.167538 0.662683 0.025192
v 0.153287 0.662683 -0.025248
v -0.166661 0.662683 -0.030304
v 0.152410 0.982670 0.030248
v -0.167538 0.982670 0.025192
v 0.153287 0.982670 -0.025248
v -0.166661 0.982670 -0.030304
v 0.641290 -0.153860 0.037974
v 0.641290 0.166128 0.037974
v 0.642167 -0.153860 -0.017523
v 0.642167 0.166128 -0.017523
v 0.961238 -0.153860 0.043030
v 0.961238 0.166128 0.043030
v 0.962115 -0.153860 -0.012467
v 0.962115 0.166128 -0.012467
vn -0.9999 0.0000 -0.0158
vn 0.0158 0.0000 -0.9999
vn 0.9999 0.0000 0.0158
vn -0.0158 0.0000 0.9999
vn 0.0000 -1.0000 -0.0000
vn 0.0000 1.0000 0.0000
usemtl gray
s off
f 228//122 230//122 229//122 227//122
f 230//123 234//123 233//123 229//123
f 234//124 232//124 231//124 233//124
f 232//125 228//125 227//125 231//125
f 227//126 229//126 233//126 231//126
f 232//127 234//127 230//127 228//127
f 236//126 238//126 237//126 235//126
f 238//123 242//123 241//123 237//123
f 242//127 240//127 239//127 241//127
f 240//125 236//125 235//125 239//125
f 235//124 237//124 241//124 239//124
f 240//122 242//122 238//122 236//122
f 244//126 246//126 245//126 243//126
f 246//123 250//123 249//123 245//123
f 250//127 248//127 247//127 249//127
f 248//125 244//125 243//125 247//125
f 243//124 245//124 249//124 247//124
f 248//122 250//122 246//122 244//122
f 252//122 254//122 253//122 251//122
f 254//123 258//123 257//123 253//123
f 258//124 256//124 255//124 257//124
f 256//125 252//125 251//125 255//125
f 251//126 253//126 257//126 255//126
f 256//127 258//127 254//127 252//127
o Middle_Cube.005
v -0.748417 -0.743062 -0.055151
v -0.748417 0.755330 -0.055151
v -0.749789 -0.743062 0.031646
v -0.749789 0.755330 0.031646
v 0.749788 -0.743062 -0.031476
v 0.749788 0.755330 -0.031476
v 0.748417 -0.743062 0.055320
v 0.748417 0.755330 0.055320
vn -0.9999 0.0000 -0.0158
vn -0.0158 0.0000 0.9999
vn 0.9999 0.0000 0.0158
vn 0.0158 0.0000 -0.9999
vn 0.0000 -1.0000 0.0000
vn 0.0000 1.0000 0.0000
usemtl Back
s off
f 260//128 259//128 261//128 262//128
f 262//129 261//129 265//129 266//129
f 266//130 265//130 263//130 264//130
f 264//131 263//131 259//131 260//131
f 259//132 263//132 265//132 261//132
f 264//133 260//133 262//133 266//133
o Outer_Ring_Cube.003
v -0.998728 -0.993866 -0.088327
v -0.998728 1.006134 -0.088327
v -1.001023 -0.993866 0.056897
v -1.001023 1.006134 0.056897
v 1.001022 -0.993866 -0.056727
v 1.001022 1.006134 -0.056727
v 0.998727 -0.993866 0.088497
v 0.998727 1.006134 0.088497
v 0.851168 1.006134 0.086165
v 0.851168 -0.993866 0.086165
v 0.853462 1.006134 -0.059059
v 0.853462 -0.993866 -0.059059
v -0.869677 -0.993866 0.058972
v -0.867382 1.006134 -0.086252
v -0.869677 1.006134 0.058972
v -0.867382 -0.993866 -0.086252
v -0.998728 0.870273 -0.088327
v -1.001023 0.870273 0.056897
v 0.998727 0.870273 0.088497
v 1.001022 0.870273 -0.056727
v 0.853462 0.870273 -0.059059
v 0.851168 0.870273 0.086165
v -0.869677 0.870273 0.058972
v -0.867382 0.870273 -0.086252
v -1.001023 -0.865457 0.056897
v 0.998727 -0.865457 0.088497
v 1.001022 -0.865457 -0.056727
v 0.853462 -0.865457 -0.059059
v 0.851168 -0.865457 0.086165
v -0.869677 -0.865457 0.058972
v -0.867382 -0.865457 -0.086252
v -0.998728 -0.865457 -0.088327
vn -0.9999 0.0000 -0.0158
vn -0.0158 0.0000 0.9999
vn 0.9999 0.0000 0.0158
vn 0.0158 0.0000 -0.9999
vn 0.0000 -1.0000 0.0000
vn 0.0000 1.0000 0.0000
usemtl red
s off
f 298//134 267//134 269//134 291//134
f 295//135 276//135 273//135 292//135
f 292//136 273//136 271//136 293//136
f 297//137 282//137 267//137 298//137
f 278//138 271//138 273//138 276//138
f 280//139 268//139 270//139 281//139
f 272//139 277//139 275//139 274//139
f 282//138 278//138 276//138 279//138
f 293//137 271//137 278//137 294//137
f 296//135 279//135 276//135 295//135
f 291//135 269//135 279//135 296//135
f 267//138 282//138 279//138 269//138
f 277//139 280//139 281//139 275//139
f 294//137 278//137 282//137 297//137
f 277//137 287//137 290//137 280//137
f 270//135 284//135 289//135 281//135
f 281//135 289//135 288//135 275//135
f 272//137 286//137 287//137 277//137
f 280//137 290//137 283//137 268//137
f 274//136 285//136 286//136 272//136
f 275//135 288//135 285//135 274//135
f 268//134 283//134 284//134 270//134
f 290//138 287//138 288//138 289//138
f 284//135 291//135 296//135 289//135
f 296//136 297//136 290//136 289//136
f 286//137 293//137 294//137 287//137
f 290//137 297//137 298//137 283//137
f 285//136 292//136 293//136 286//136
f 288//135 295//135 292//135 285//135
f 283//134 298//134 291//134 284//134
f 297//139 296//139 295//139 294//139
f 294//134 295//134 288//134 287//134
